<?xml version="1.0" encoding="UTF-8" standalone="no"?>
<svg
   xmlns:dc="http://purl.org/dc/elements/1.1/"
   xmlns:cc="http://creativecommons.org/ns#"
   xmlns:rdf="http://www.w3.org/1999/02/22-rdf-syntax-ns#"
   xmlns:svg="http://www.w3.org/2000/svg"
   xmlns="http://www.w3.org/2000/svg"
   xmlns:sodipodi="http://sodipodi.sourceforge.net/DTD/sodipodi-0.dtd"
   xmlns:inkscape="http://www.inkscape.org/namespaces/inkscape"
   sodipodi:docname="logo-icon.svg"
   xml:space="preserve"
   height="62.524456"
   width="108.2169"
   inkscape:version="1.0 (4035a4fb49, 2020-05-01)"
   version="1.1"
   id="svg3164"><metadata
     id="metadata3170"><rdf:RDF><cc:Work
         rdf:about=""><dc:format>image/svg+xml</dc:format><dc:type
           rdf:resource="http://purl.org/dc/dcmitype/StillImage" /><dc:title></dc:title></cc:Work></rdf:RDF></metadata><defs
     id="defs3168"><clipPath
       id="clipPath3180"
       clipPathUnits="userSpaceOnUse"><path
         id="path3182"
         d="M 0,320 H 480 V 0 H 0 Z" /></clipPath><clipPath
       id="clipPath3248"
       clipPathUnits="userSpaceOnUse"><path
         id="path3250"
         d="M 0,320 H 480 V 0 H 0 Z" /></clipPath></defs><sodipodi:namedview
     inkscape:document-rotation="0"
     inkscape:current-layer="g3172"
     inkscape:window-maximized="1"
     inkscape:window-y="-8"
     inkscape:window-x="-8"
     inkscape:cy="31.7396"
     inkscape:cx="104.92724"
     inkscape:zoom="2.7794532"
     showgrid="false"
     id="namedview3166"
     inkscape:window-height="1017"
     inkscape:window-width="1920"
     inkscape:pageshadow="2"
     inkscape:pageopacity="0"
     guidetolerance="10"
     gridtolerance="10"
     objecttolerance="10"
     borderopacity="1"
     bordercolor="#666666"
     pagecolor="#ffffff" /><g
     transform="matrix(1.25,0,0,-1.25,-56.203922,232.26335)"
     inkscape:label="For Web Header"
     inkscape:groupmode="layer"
     id="g3172"><path
   id="path3174"
   style="fill:#ffffff;fill-opacity:1;fill-rule:nonzero;stroke:none"
   d="M 0,0 H 480 V 320 H 0 Z" /><g
   id="g3244"><g
     clip-path="url(#clipPath3248)"
     id="g3246"><g
       transform="translate(125.4399,157.8887)"
       id="g3252"><path
         id="path3254"
         style="fill:#000000;fill-opacity:1;fill-rule:nonzero;stroke:none"
         d="m 0,0 c 2.091,2.77 3.141,6.139 3.144,10.103 10e-4,3.961 -1.046,7.327 -3.137,10.103 -2.264,3.059 -5.348,4.585 -9.256,4.588 l -32.18,0.009 v 0.002 h -9.301 v -4.169 l 9.301,-10.138 v 4.117 l 31.583,-0.011 c 1.867,0 2.802,-1.501 2.802,-4.499 -0.002,-3.001 -0.937,-4.5 -2.804,-4.499 L -33.095,5.612 V 2.264 l 18.826,-21.108 13.925,-0.006 -12.819,14.27 3.905,-0.002 c 3.907,0 6.993,1.527 9.258,4.582" /></g><g
       transform="translate(50.916,163.8442)"
       id="g3256"><path
         id="path3258"
         style="fill:#000000;fill-opacity:1;fill-rule:nonzero;stroke:none"
         d="m 0,0 c -2.092,-2.771 -3.142,-6.139 -3.144,-10.104 -10e-4,-3.961 1.046,-7.326 3.137,-10.104 2.263,-3.058 5.348,-4.582 9.255,-4.585 l 32.181,-0.01 v -0.002 h 9.301 v 4.168 l -9.301,10.138 v -4.115 l -31.583,0.01 c -1.867,0 -2.801,1.5 -2.801,4.498 0.001,3.002 0.935,4.502 2.803,4.498 l 23.247,-0.004 v 3.348 L 14.27,18.843 0.344,18.85 13.163,4.581 9.257,4.582 C 5.352,4.582 2.265,3.055 0,0" /></g></g></g>
</g></svg>
