<?xml version="1.0" encoding="UTF-8" standalone="no"?>
<svg
   xmlns:dc="http://purl.org/dc/elements/1.1/"
   xmlns:cc="http://creativecommons.org/ns#"
   xmlns:rdf="http://www.w3.org/1999/02/22-rdf-syntax-ns#"
   xmlns:svg="http://www.w3.org/2000/svg"
   xmlns="http://www.w3.org/2000/svg"
   xmlns:sodipodi="http://sodipodi.sourceforge.net/DTD/sodipodi-0.dtd"
   xmlns:inkscape="http://www.inkscape.org/namespaces/inkscape"
   width="562.93683"
   height="667.84473"
   overflow="hidden"
   version="1.1"
   id="svg1017"
   sodipodi:docname="client-service.svg"
   inkscape:version="1.0 (4035a4fb49, 2020-05-01)">
  <metadata
     id="metadata1021">
    <rdf:RDF>
      <cc:Work
         rdf:about="">
        <dc:format>image/svg+xml</dc:format>
        <dc:type
           rdf:resource="http://purl.org/dc/dcmitype/StillImage" />
      </cc:Work>
    </rdf:RDF>
  </metadata>
  <sodipodi:namedview
     inkscape:document-rotation="0"
     pagecolor="#ffffff"
     bordercolor="#666666"
     borderopacity="1"
     objecttolerance="10"
     gridtolerance="10"
     guidetolerance="10"
     inkscape:pageopacity="0"
     inkscape:pageshadow="2"
     inkscape:window-width="1920"
     inkscape:window-height="1017"
     id="namedview1019"
     showgrid="false"
     inkscape:zoom="1.1486111"
     inkscape:cx="345.24179"
     inkscape:cy="323.03964"
     inkscape:window-x="-8"
     inkscape:window-y="-8"
     inkscape:window-maximized="1"
     inkscape:current-layer="svg1017" />
  <defs
     id="defs931">
    <clipPath
       id="clip0">
      <path
         d="M 0,0 H 960 V 720 H 0 Z"
         fill-rule="evenodd"
         clip-rule="evenodd"
         id="path928" />
    </clipPath>
  </defs>
  <g
     clip-path="url(#clip0)"
     id="g1015"
     transform="translate(-80.054466,-36.960358)">
    <rect
       x="0"
       y="0"
       width="960"
       height="720"
       fill="#ffffff"
       id="rect933" />
    <path
       d="m 202.5,94.1674 c 0,-19.1462 15.521,-34.6673 34.667,-34.6673 h 248.666 c 19.146,0 34.667,15.5211 34.667,34.6673 V 232.833 c 0,19.146 -15.521,34.667 -34.667,34.667 H 237.167 c -19.146,0 -34.667,-15.521 -34.667,-34.667 z"
       stroke="#000000"
       stroke-width="3.33333"
       stroke-linejoin="round"
       stroke-miterlimit="10"
       fill="none"
       fill-rule="evenodd"
       id="path935" />
    <path
       d="m 112.5,507.167 c 0,-19.146 15.521,-34.667 34.667,-34.667 h 426.666 c 19.146,0 34.667,15.521 34.667,34.667 v 138.666 c 0,19.146 -15.521,34.667 -34.667,34.667 H 147.167 c -19.146,0 -34.667,-15.521 -34.667,-34.667 z"
       stroke="#000000"
       stroke-width="3.33333"
       stroke-linejoin="round"
       stroke-miterlimit="10"
       fill="none"
       fill-rule="evenodd"
       id="path937" />
    <path
       d="m 360.5,276.5 c 0,2.209 -7.163,4 -16,4 -8.836,0 -16,-1.791 -16,-4 0,-2.209 7.164,-4 16,-4 8.837,0 16,1.791 16,4 z m 0,0 v 184 c 0,2.209 -7.163,4 -16,4 -8.836,0 -16,-1.791 -16,-4 v -184"
       stroke="#000000"
       stroke-width="2.66667"
       stroke-linejoin="round"
       stroke-miterlimit="10"
       stroke-dasharray="8, 2.66667"
       fill="none"
       fill-rule="evenodd"
       id="path939" />
    <path
       d="m 424.5,208.5 c 0,-8.837 7.164,-16 16,-16 8.837,0 16,7.163 16,16 0,8.837 -7.163,16 -16,16 -8.836,0 -16,-7.163 -16,-16 z"
       stroke="#000000"
       stroke-width="2.66667"
       stroke-linejoin="round"
       stroke-miterlimit="10"
       fill="#a6a6a6"
       fill-rule="evenodd"
       id="path941" />
    <path
       d="m 250.5,101.834 c 0,-2.9461 2.388,-5.3339 5.334,-5.3339 h 101.333 c 2.945,0 5.333,2.3878 5.333,5.3339 v 21.333 c 0,2.945 -2.388,5.333 -5.333,5.333 H 255.834 c -2.946,0 -5.334,-2.388 -5.334,-5.333 z"
       stroke="#000000"
       stroke-width="1.33333"
       stroke-linejoin="round"
       stroke-miterlimit="10"
       fill="none"
       fill-rule="evenodd"
       id="path943" />
    <text
       font-family="Calibri, Calibri_MSFontService, sans-serif"
       font-weight="400"
       font-size="16px"
       transform="translate(266.21,117)"
       id="text945">Object Ref 1</text>
    <path
       d="m 226.5,149.834 c 0,-2.946 2.388,-5.334 5.334,-5.334 h 101.333 c 2.945,0 5.333,2.388 5.333,5.334 v 21.333 c 0,2.945 -2.388,5.333 -5.333,5.333 H 231.834 c -2.946,0 -5.334,-2.388 -5.334,-5.333 z"
       stroke="#000000"
       stroke-width="1.33333"
       stroke-linejoin="round"
       stroke-miterlimit="10"
       fill="none"
       fill-rule="evenodd"
       id="path947" />
    <text
       font-family="Calibri, Calibri_MSFontService, sans-serif"
       font-weight="400"
       font-size="16px"
       transform="translate(242.21,165)"
       id="text949">Object Ref 2</text>
    <path
       d="m 258.5,197.834 c 0,-2.946 2.388,-5.334 5.334,-5.334 h 101.333 c 2.945,0 5.333,2.388 5.333,5.334 v 21.333 c 0,2.945 -2.388,5.333 -5.333,5.333 H 263.834 c -2.946,0 -5.334,-2.388 -5.334,-5.333 z"
       stroke="#000000"
       stroke-width="1.33333"
       stroke-linejoin="round"
       stroke-miterlimit="10"
       fill="none"
       fill-rule="evenodd"
       id="path951" />
    <text
       font-family="Calibri, Calibri_MSFontService, sans-serif"
       font-weight="400"
       font-size="16px"
       transform="translate(274.21,213)"
       id="text953">Object Ref 3</text>
    <path
       d="m 363.547,112.861 76.621,78.893 -0.717,0.697 -76.621,-78.894 z m 1.383,9.46 -2.432,-9.823 9.747,2.718 c 0.266,0.074 0.422,0.35 0.348,0.616 -0.074,0.266 -0.35,0.422 -0.616,0.348 l -8.922,-2.488 0.62,-0.602 2.226,8.99 c 0.066,0.268 -0.097,0.539 -0.365,0.606 -0.268,0.066 -0.539,-0.097 -0.606,-0.365 z m 73.14,60.672 2.432,9.822 -9.747,-2.717 c -0.266,-0.075 -0.422,-0.35 -0.348,-0.616 0.075,-0.266 0.35,-0.422 0.616,-0.348 l 8.922,2.488 -0.62,0.602 -2.226,-8.99 c -0.066,-0.268 0.097,-0.54 0.365,-0.606 0.268,-0.066 0.539,0.097 0.606,0.365 z"
       fill="#4a7ebb"
       id="path955" />
    <path
       d="m 339.606,160.411 88.853,36.252 -0.378,0.926 -88.853,-36.252 z m 5.059,8.111 -6.167,-8.023 10.019,-1.419 c 0.273,-0.038 0.526,0.152 0.565,0.425 0.039,0.274 -0.152,0.527 -0.425,0.565 l -9.17,1.299 0.326,-0.8 5.644,7.343 c 0.169,0.219 0.128,0.533 -0.091,0.701 -0.219,0.169 -0.533,0.128 -0.701,-0.091 z m 78.357,20.956 6.167,8.023 -10.019,1.419 c -0.274,0.039 -0.527,-0.152 -0.565,-0.425 -0.039,-0.274 0.151,-0.527 0.424,-0.565 l 9.171,-1.299 -0.327,0.8 -5.644,-7.343 c -0.168,-0.219 -0.127,-0.533 0.092,-0.701 0.219,-0.169 0.533,-0.128 0.701,0.091 z"
       fill="#4a7ebb"
       id="path957" />
    <path
       d="m 371.493,208.006 52.02,0.302 -0.006,1 -52.02,-0.302 z m 7.715,5.643 -8.71,-5.149 8.77,-5.048 c 0.239,-0.137 0.545,-0.055 0.682,0.184 0.138,0.24 0.056,0.545 -0.184,0.683 l -8.027,4.62 0.005,-0.864 7.973,4.713 c 0.238,0.141 0.317,0.448 0.176,0.685 -0.14,0.238 -0.447,0.317 -0.685,0.176 z m 36.584,-9.984 8.71,5.149 -8.769,5.047 c -0.24,0.138 -0.545,0.056 -0.683,-0.183 -0.138,-0.24 -0.056,-0.545 0.184,-0.683 l 8.027,-4.62 -0.005,0.863 -7.973,-4.713 c -0.238,-0.14 -0.317,-0.447 -0.176,-0.685 0.14,-0.237 0.447,-0.316 0.685,-0.175 z"
       fill="#4a7ebb"
       id="path959" />
    <path
       d="m 336.5,496.5 c 0,-4.418 3.582,-8 8,-8 4.418,0 8,3.582 8,8 0,4.418 -3.582,8 -8,8 -4.418,0 -8,-3.582 -8,-8 z"
       stroke="#000000"
       stroke-width="2.66667"
       stroke-linejoin="round"
       stroke-miterlimit="10"
       fill="#a6a6a6"
       fill-rule="evenodd"
       id="path961" />
    <path
       d="m 232.5,496.5 c 0,-4.418 3.582,-8 8,-8 4.418,0 8,3.582 8,8 0,4.418 -3.582,8 -8,8 -4.418,0 -8,-3.582 -8,-8 z"
       stroke="#000000"
       stroke-width="2.66667"
       stroke-linejoin="round"
       stroke-miterlimit="10"
       fill="#a6a6a6"
       fill-rule="evenodd"
       id="path963" />
    <path
       d="m 424.5,496.5 c 0,-4.418 3.582,-8 8,-8 4.418,0 8,3.582 8,8 0,4.418 -3.582,8 -8,8 -4.418,0 -8,-3.582 -8,-8 z"
       stroke="#000000"
       stroke-width="2.66667"
       stroke-linejoin="round"
       stroke-miterlimit="10"
       fill="#a6a6a6"
       fill-rule="evenodd"
       id="path965" />
    <path
       d="m 328.5,560.5 c 0,-8.836 7.164,-16 16,-16 8.837,0 16,7.164 16,16 0,8.837 -7.163,16 -16,16 -8.836,0 -16,-7.163 -16,-16 z"
       stroke="#000000"
       stroke-width="2.66667"
       stroke-linejoin="round"
       stroke-miterlimit="10"
       fill="#a6a6a6"
       fill-rule="evenodd"
       id="path967" />
    <path
       d="m 160.5,605.834 c 0,-2.946 2.388,-5.334 5.334,-5.334 h 101.333 c 2.945,0 5.333,2.388 5.333,5.334 v 21.333 c 0,2.945 -2.388,5.333 -5.333,5.333 H 165.834 c -2.946,0 -5.334,-2.388 -5.334,-5.333 z"
       stroke="#000000"
       stroke-width="1.33333"
       stroke-linejoin="round"
       stroke-miterlimit="10"
       fill="none"
       fill-rule="evenodd"
       id="path969" />
    <text
       font-family="Calibri, Calibri_MSFontService, sans-serif"
       font-weight="400"
       font-size="16px"
       transform="translate(188.583,621)"
       id="text971">Object 1</text>
    <path
       d="m 304.5,629.834 c 0,-2.946 2.388,-5.334 5.334,-5.334 h 101.333 c 2.945,0 5.333,2.388 5.333,5.334 v 21.333 c 0,2.945 -2.388,5.333 -5.333,5.333 H 309.834 c -2.946,0 -5.334,-2.388 -5.334,-5.333 z"
       stroke="#000000"
       stroke-width="1.33333"
       stroke-linejoin="round"
       stroke-miterlimit="10"
       fill="none"
       fill-rule="evenodd"
       id="path973" />
    <text
       font-family="Calibri, Calibri_MSFontService, sans-serif"
       font-weight="400"
       font-size="16px"
       transform="translate(332.583,645)"
       id="text975">Object 2</text>
    <path
       d="m 456.5,621.834 c 0,-2.946 2.388,-5.334 5.334,-5.334 h 101.333 c 2.945,0 5.333,2.388 5.333,5.334 v 21.333 c 0,2.945 -2.388,5.333 -5.333,5.333 H 461.834 c -2.946,0 -5.334,-2.388 -5.334,-5.333 z"
       stroke="#000000"
       stroke-width="1.33333"
       stroke-linejoin="round"
       stroke-miterlimit="10"
       fill="none"
       fill-rule="evenodd"
       id="path977" />
    <text
       font-family="Calibri, Calibri_MSFontService, sans-serif"
       font-weight="400"
       font-size="16px"
       transform="translate(484.583,637)"
       id="text987">Object 3<tspan
   font-weight="700"
   font-size="32px"
   x="-50.479198"
   y="-322"
   id="tspan979">Client</tspan><tspan
   font-weight="700"
   font-size="32px"
   x="-44.212601"
   y="-284"
   id="tspan981">Node</tspan><tspan
   font-weight="700"
   font-size="32px"
   x="-370.38901"
   y="-226"
   id="tspan983">Service</tspan><tspan
   font-weight="700"
   font-size="32px"
   x="-354.83499"
   y="-188"
   id="tspan985">Node</tspan></text>
    <path
       d="M 0.160415,-0.473568 83.9093,27.8952 83.5885,28.8423 -0.160415,0.473568 Z M 78.0459,21.0538 l 6.6426,7.6332 -9.9141,2.0249 c -0.2706,0.0552 -0.5347,-0.1193 -0.59,-0.3899 -0.0552,-0.2705 0.1193,-0.5346 0.3899,-0.5899 l 9.0743,-1.8533 -0.2771,0.8181 -6.0799,-6.9866 c -0.1813,-0.2083 -0.1594,-0.5242 0.0489,-0.7054 0.2083,-0.1813 0.5242,-0.1594 0.7054,0.0489 z"
       fill="#4a7ebb"
       transform="matrix(1,0,0,-1,344.5,248.186)"
       id="path989" />
    <path
       d="m 345.167,248.5 -0.166,239.012 -1,-10e-4 0.166,-239.011 z m 4.438,231.266 -5.105,8.736 -5.092,-8.744 c -0.139,-0.238 -0.059,-0.544 0.18,-0.683 0.239,-0.139 0.545,-0.058 0.684,0.18 l 4.661,8.003 h -0.864 l 4.672,-7.997 c 0.14,-0.238 0.446,-0.319 0.684,-0.179 0.239,0.139 0.319,0.445 0.18,0.684 z"
       fill="#4a7ebb"
       id="path991" />
    <path
       d="m 345.163,505.492 -0.159,38.02 -1,-0.004 0.159,-38.02 z m -5.631,7.725 5.135,-8.719 5.062,8.761 c 0.138,0.239 0.056,0.545 -0.183,0.683 -0.239,0.139 -0.545,0.057 -0.683,-0.182 l -4.633,-8.02 0.863,0.004 -4.699,7.98 c -0.141,0.238 -0.447,0.318 -0.685,0.177 -0.238,-0.14 -0.317,-0.446 -0.177,-0.684 z m 10.103,22.566 -5.135,8.719 -5.062,-8.761 c -0.138,-0.239 -0.056,-0.545 0.183,-0.683 0.239,-0.138 0.545,-0.057 0.683,0.183 l 4.633,8.019 -0.864,-0.004 4.7,-7.98 c 0.14,-0.238 0.447,-0.317 0.685,-0.177 0.238,0.14 0.317,0.446 0.177,0.684 z"
       fill="#4a7ebb"
       id="path993" />
    <path
       d="M 0.910568,0.633318 46.9989,85.9213 46.1192,86.3967 0.0308039,1.10873 Z M -0.331374,10.1113 -0.00110164,-0.00203873 8.63969,5.26354 C 8.87549,5.40724 8.95016,5.71489 8.80647,5.9507 8.66277,6.1865 8.35512,6.26117 8.11931,6.11748 L 0.210467,1.29794 0.970389,0.887287 0.668094,10.144 C 0.65908,10.42 0.428035,10.6364 0.15204,10.6274 -0.123955,10.6184 -0.340387,10.3873 -0.331374,10.1113 Z M 47.3607,76.918 47.0305,87.0314 38.3897,81.7659 c -0.2358,-0.1437 -0.3105,-0.4514 -0.1668,-0.6872 0.1437,-0.2358 0.4514,-0.3105 0.6872,-0.1668 l 7.9088,4.8196 -0.7599,0.4106 0.3023,-9.2567 c 0.009,-0.276 0.24,-0.4924 0.516,-0.4834 0.276,0.009 0.4925,0.2401 0.4834,0.516 z"
       fill="#4a7ebb"
       transform="matrix(-4.37114e-8,-1,-1,4.37114e-8,333.529,549.529)"
       id="path995" />
    <path
       d="m 356.05,548.566 69.378,-45.936 0.552,0.834 -69.378,45.936 z m 9.551,0.391 -10.103,0.574 4.473,-9.077 c 0.122,-0.247 0.422,-0.349 0.67,-0.227 0.247,0.122 0.349,0.422 0.227,0.669 l -4.094,8.308 -0.477,-0.72 9.247,-0.526 c 0.276,-0.015 0.512,0.195 0.527,0.471 0.016,0.276 -0.195,0.512 -0.47,0.528 z m 50.828,-45.884 10.102,-0.574 -4.473,9.076 c -0.122,0.248 -0.421,0.35 -0.669,0.228 -0.248,-0.122 -0.35,-0.422 -0.228,-0.67 l 4.094,-8.307 0.477,0.72 -9.246,0.525 c -0.276,0.016 -0.512,-0.195 -0.528,-0.471 -0.016,-0.275 0.195,-0.511 0.471,-0.527 z"
       fill="#4a7ebb"
       id="path997" />
    <path
       d="m 345.163,577.492 -0.159,46.02 -1,-0.004 0.159,-46.02 z m -5.625,7.728 5.129,-8.722 5.068,8.758 c 0.138,0.239 0.057,0.545 -0.182,0.683 -0.239,0.138 -0.545,0.057 -0.684,-0.182 l -4.638,-8.017 0.863,0.003 -4.694,7.984 c -0.14,0.238 -0.446,0.318 -0.685,0.178 -0.238,-0.14 -0.317,-0.447 -0.177,-0.685 z m 10.091,30.56 -5.129,8.722 -5.068,-8.758 c -0.138,-0.239 -0.057,-0.545 0.182,-0.683 0.239,-0.138 0.545,-0.057 0.683,0.182 l 4.639,8.017 -0.864,-0.003 4.695,-7.984 c 0.14,-0.238 0.446,-0.318 0.684,-0.178 0.238,0.14 0.318,0.447 0.178,0.685 z"
       fill="#4a7ebb"
       id="path999" />
    <path
       d="M 0.938749,0.588909 60.6044,99.5818 59.7479,100.098 0.0822879,1.10512 Z M 0.14398,10.1157 -0.00119622,-0.0019847 8.87741,4.85187 C 9.1197,4.98434 9.20874,5.28814 9.07628,5.53044 8.94382,5.77274 8.64002,5.86177 8.39772,5.72931 L 0.271206,1.28662 1.011,0.840723 1.14388,10.1014 C 1.14784,10.3775 0.927216,10.6046 0.651102,10.6085 0.374988,10.6125 0.147942,10.3919 0.14398,10.1157 Z M 60.5423,90.5705 60.6875,100.688 51.8089,95.8344 C 51.5666,95.702 51.4775,95.3982 51.61,95.1559 c 0.1325,-0.2423 0.4363,-0.3313 0.6786,-0.1989 l 8.1265,4.4427 -0.7398,0.4459 -0.1329,-9.2607 c -0.004,-0.2761 0.2166,-0.5032 0.4928,-0.5071 0.2761,-0.004 0.5031,0.2166 0.5071,0.4927 z"
       fill="#4a7ebb"
       transform="matrix(-4.37114e-8,1,1,4.37114e-8,355.5,571.5)"
       id="path1001" />
    <path
       d="m 332.686,572.49 -59.092,43.512 -0.593,-0.806 59.092,-43.511 z m -9.559,0.086 10.061,-1.077 -4.015,9.288 c -0.109,0.253 -0.404,0.37 -0.657,0.26 -0.254,-0.109 -0.37,-0.404 -0.261,-0.657 l 3.675,-8.501 0.512,0.695 -9.209,0.986 c -0.274,0.029 -0.521,-0.169 -0.55,-0.444 -0.029,-0.275 0.169,-0.521 0.444,-0.55 z m -40.568,42.535 -10.061,1.077 4.015,-9.288 c 0.11,-0.254 0.404,-0.371 0.658,-0.261 0.253,0.11 0.37,0.404 0.26,0.657 l -3.675,8.502 -0.512,-0.696 9.209,-0.985 c 0.275,-0.03 0.521,0.169 0.55,0.443 0.03,0.275 -0.169,0.521 -0.444,0.551 z"
       fill="#4a7ebb"
       id="path1003" />
    <text
       font-family="Calibri, Calibri_MSFontService, sans-serif"
       font-weight="400"
       font-size="19px"
       transform="translate(449.6,502)"
       id="text1011">Server Endpoints<tspan
   x="-72"
   y="64"
   id="tspan1005">Server Context</tspan><tspan
   x="0"
   y="-336"
   id="tspan1007">Client</tspan><tspan
   x="0"
   y="-313"
   id="tspan1009">Context</tspan></text>
    <text
       font-family="Calibri, Calibri_MSFontService, sans-serif"
       font-weight="400"
       font-size="19px"
       transform="rotate(-90,357.9,48.1)"
       id="text1013">Transport</text>
  </g>
</svg>
