<?xml version="1.0" encoding="UTF-8" standalone="no"?>
<svg
   xmlns:dc="http://purl.org/dc/elements/1.1/"
   xmlns:cc="http://creativecommons.org/ns#"
   xmlns:rdf="http://www.w3.org/1999/02/22-rdf-syntax-ns#"
   xmlns:svg="http://www.w3.org/2000/svg"
   xmlns="http://www.w3.org/2000/svg"
   xmlns:sodipodi="http://sodipodi.sourceforge.net/DTD/sodipodi-0.dtd"
   xmlns:inkscape="http://www.inkscape.org/namespaces/inkscape"
   id="svg3164"
   version="1.1"
   inkscape:version="1.0 (4035a4fb49, 2020-05-01)"
   width="508.65536"
   height="69.720116"
   xml:space="preserve"
   sodipodi:docname="For Web Header.svg"><metadata
     id="metadata3170"><rdf:RDF><cc:Work
         rdf:about=""><dc:format>image/svg+xml</dc:format><dc:type
           rdf:resource="http://purl.org/dc/dcmitype/StillImage" /><dc:title /></cc:Work></rdf:RDF></metadata><defs
     id="defs3168"><clipPath
       clipPathUnits="userSpaceOnUse"
       id="clipPath3180"><path
         d="M 0,320 H 480 V 0 H 0 Z"
         id="path3182" /></clipPath><clipPath
       clipPathUnits="userSpaceOnUse"
       id="clipPath3248"><path
         d="M 0,320 H 480 V 0 H 0 Z"
         id="path3250" /></clipPath></defs><sodipodi:namedview
     pagecolor="#ffffff"
     bordercolor="#666666"
     borderopacity="1"
     objecttolerance="10"
     gridtolerance="10"
     guidetolerance="10"
     inkscape:pageopacity="0"
     inkscape:pageshadow="2"
     inkscape:window-width="1920"
     inkscape:window-height="1017"
     id="namedview3166"
     showgrid="false"
     inkscape:zoom="2.7794532"
     inkscape:cx="120.68843"
     inkscape:cy="6.773564"
     inkscape:window-x="-8"
     inkscape:window-y="-8"
     inkscape:window-maximized="1"
     inkscape:current-layer="g3172"
     inkscape:document-rotation="0" /><g
     id="g3172"
     inkscape:groupmode="layer"
     inkscape:label="For Web Header"
     transform="matrix(1.25,0,0,-1.25,-52.747096,236.07995)"><path
   d="M 0,0 H 480 V 320 H 0 Z"
   style="fill:#ffffff;fill-opacity:1;fill-rule:nonzero;stroke:none"
   id="path3174" /><g
   id="g3176"><g
     id="g3178"
     clip-path="url(#clipPath3180)"><g
       id="g3184"
       transform="translate(137.6753,144.7187)"><path
         d="m 0,0 v 31.74 h 14.448 c 6.489,0 9.735,-2.838 9.735,-8.513 0,-3.839 -2.527,-7.017 -7.579,-9.537 L 26.672,-0.046 H 19.026 L 9.357,13.802 v 2.689 c 5.78,0.964 8.669,3.149 8.669,6.558 0,2.341 -1.319,3.512 -3.956,3.512 H 6.001 V 0 Z"
         style="fill:#000000;fill-opacity:1;fill-rule:nonzero;stroke:none"
         id="path3186" /></g><g
       id="g3188"
       transform="translate(175.7412,149.1191)"><path
         d="m 0,0 c 3.927,0 5.89,2.438 5.89,7.312 0,4.757 -1.963,7.135 -5.89,7.135 -3.926,0 -5.89,-2.378 -5.89,-7.135 C -5.89,2.438 -3.926,0 0,0 m -11.781,7.224 c 0,7.927 3.927,11.891 11.781,11.891 7.854,0 11.78,-3.964 11.78,-11.891 0,-7.914 -3.926,-11.87 -11.78,-11.87 -7.824,0 -11.751,3.956 -11.781,11.87"
         style="fill:#000000;fill-opacity:1;fill-rule:nonzero;stroke:none"
         id="path3190" /></g><g
       id="g3192"
       transform="translate(195.2485,150.0742)"><path
         d="m 0,0 c 1.348,-0.43 2.912,-0.644 4.689,-0.644 3.853,0 5.779,2.511 5.779,7.534 0,4.105 -1.681,6.157 -5.045,6.157 -1.985,0 -3.793,-0.4 -5.423,-1.199 z M -5.89,26.384 H 0 v -9.558 c 1.763,0.741 3.579,1.112 5.445,1.112 7.231,0 10.847,-3.734 10.847,-11.203 0,-8.091 -3.949,-12.136 -11.847,-12.136 -3.2,0 -6.646,0.318 -10.335,0.956 z"
         style="fill:#000000;fill-opacity:1;fill-rule:nonzero;stroke:none"
         id="path3194" /></g><g
       id="g3196"
       transform="translate(223.7124,149.1191)"><path
         d="m 0,0 c 3.927,0 5.89,2.438 5.89,7.312 0,4.757 -1.963,7.135 -5.89,7.135 -3.926,0 -5.89,-2.378 -5.89,-7.135 C -5.89,2.438 -3.926,0 0,0 m -11.781,7.224 c 0,7.927 3.927,11.891 11.781,11.891 7.854,0 11.78,-3.964 11.78,-11.891 0,-7.914 -3.926,-11.87 -11.78,-11.87 -7.824,0 -11.751,3.956 -11.781,11.87"
         style="fill:#000000;fill-opacity:1;fill-rule:nonzero;stroke:none"
         id="path3198" /></g><g
       id="g3200"
       transform="translate(237.3296,171.7905)"><path
         d="m 0,0 h 4.356 l 0.889,-3.778 h 5.423 V -8.447 H 5.891 v -10.735 c 0,-2.179 0.941,-3.268 2.821,-3.268 h 1.956 v -4.668 h -4.8 C 1.955,-27.118 0,-25.02 0,-20.827 Z"
         style="fill:#000000;fill-opacity:1;fill-rule:nonzero;stroke:none"
         id="path3202" /></g><g
       id="g3204"
       transform="translate(250.7227,144.6729)"><path
         d="m 0,0 v 31.786 h 13.114 c 5.749,0 8.624,-2.542 8.624,-7.624 0,-4.402 -3.119,-7.521 -9.357,-9.358 L 23.116,0 h -3.2 L 9.358,14.737 v 1.578 c 6.519,0.963 9.78,3.519 9.78,7.668 0,3.824 -2.134,5.735 -6.402,5.735 H 2.334 V 0 Z"
         style="fill:#000000;fill-opacity:1;fill-rule:nonzero;stroke:none"
         id="path3206" /></g><g
       id="g3208"
       transform="translate(284.2559,156.4541)"><path
         d="m 0,0 c -5.055,0 -7.581,-1.556 -7.581,-4.668 0,-3.409 2.148,-5.112 6.446,-5.112 2.845,0 5.697,0.608 8.558,1.822 v 7.514 C 4.903,-0.148 2.43,0 0,0 M -9.915,-4.735 C -9.915,-0.245 -6.61,2 0,2 2.325,2 4.801,1.852 7.423,1.555 v 2.867 c 0,3.424 -2.69,5.135 -8.069,5.135 -2.401,0 -4.86,-0.37 -7.379,-1.111 v 2 c 2.519,0.742 4.978,1.112 7.379,1.112 6.935,0 10.403,-2.49 10.403,-7.468 V -11.781 H 8.334 l -0.755,1.645 c -3.068,-1.096 -5.972,-1.645 -8.714,-1.645 -5.853,0 -8.78,2.347 -8.78,7.046"
         style="fill:#000000;fill-opacity:1;fill-rule:nonzero;stroke:none"
         id="path3210" /></g><g
       id="g3212"
       transform="translate(316.1865,145.3398)"><path
         d="m 0,0 c -1.927,-0.445 -4.001,-0.667 -6.224,-0.667 -8.446,0 -12.67,4.038 -12.67,12.115 0,7.482 4.224,11.224 12.67,11.224 2.223,0 4.297,-0.222 6.224,-0.667 v -2 c -1.927,0.444 -3.854,0.666 -5.779,0.666 -7.038,0 -10.558,-3.074 -10.558,-9.223 0,-6.744 3.52,-10.114 10.558,-10.114 1.925,0 3.852,0.222 5.779,0.666 z"
         style="fill:#000000;fill-opacity:1;fill-rule:nonzero;stroke:none"
         id="path3214" /></g><g
       id="g3216"
       transform="translate(328.9131,146.6738)"><path
         d="m 0,0 c 5.853,0 8.779,3.252 8.779,9.758 0,6.386 -2.926,9.579 -8.779,9.579 -5.854,0 -8.78,-3.193 -8.78,-9.579 C -8.78,3.252 -5.854,0 0,0 m -11.113,9.669 c 0,7.779 3.704,11.669 11.113,11.669 7.41,0 11.113,-3.89 11.113,-11.669 C 11.113,1.904 7.41,-1.979 0,-1.979 c -7.38,0 -11.083,3.883 -11.113,11.648"
         style="fill:#000000;fill-opacity:1;fill-rule:nonzero;stroke:none"
         id="path3218" /></g><g
       id="g3220"
       transform="translate(343.3076,144.6729)"><path
         d="m 0,0 v 23.339 h 1.667 l 0.29,-2.979 c 3.867,1.986 7.231,2.979 10.091,2.979 5.083,0 7.624,-2.452 7.624,-7.358 V 0 h -2.334 v 16.048 c 0,3.468 -1.948,5.202 -5.846,5.202 -2.801,0 -5.853,-0.986 -9.158,-2.957 L 2.334,0 Z"
         style="fill:#000000;fill-opacity:1;fill-rule:nonzero;stroke:none"
         id="path3222" /></g><g
       id="g3224"
       transform="translate(367.3711,171.7905)"><path
         d="M 0,0 H 1.467 L 1.911,-3.778 H 7.779 V -5.779 H 2.333 v -14.737 c 0,-3.067 1.164,-4.601 3.491,-4.601 h 1.955 v -2.001 H 5.868 C 1.957,-27.118 0,-25.02 0,-20.827 Z"
         style="fill:#000000;fill-opacity:1;fill-rule:nonzero;stroke:none"
         id="path3226" /></g><g
       id="g3228"
       transform="translate(378.542,157.9209)"><path
         d="M 0,0 H 15.293 C 15.647,5.423 13.276,8.135 8.18,8.135 2.994,8.135 0.267,5.423 0,0 M 17.493,-2.09 H 0 c 0,-6.105 3.602,-9.157 10.803,-9.157 2.059,0 4.119,0.222 6.178,0.666 v -2 c -2.059,-0.445 -4.564,-0.667 -7.512,-0.667 -7.868,0 -11.803,3.979 -11.803,11.936 0,7.602 3.728,11.403 11.181,11.403 6.846,0 9.727,-4.06 8.646,-12.181"
         style="fill:#000000;fill-opacity:1;fill-rule:nonzero;stroke:none"
         id="path3230" /></g><g
       id="g3232"
       transform="translate(419.7432,168.0122)"><path
         d="m 0,0 v -23.339 h -1.712 l -0.267,2.977 c -3.867,-1.985 -7.231,-2.977 -10.09,-2.977 -5.068,0 -7.603,2.898 -7.603,8.69 V 0 h 2.334 v -14.714 c 0,-4.358 2.163,-6.536 6.491,-6.536 2.357,0 5.194,0.985 8.513,2.957 V 0 Z"
         style="fill:#000000;fill-opacity:1;fill-rule:nonzero;stroke:none"
         id="path3234" /></g><g
       id="g3236"
       transform="translate(424.1348,144.6729)"><path
         d="m 0,0 v 23.339 h 1.667 l 0.29,-2.979 c 1.304,1.986 3.393,2.979 6.267,2.979 v -1.867 c -2.785,0 -4.748,-0.986 -5.89,-2.956 L 2.334,0 Z"
         style="fill:#000000;fill-opacity:1;fill-rule:nonzero;stroke:none"
         id="path3238" /></g></g></g><g
   id="g3244"><g
     id="g3246"
     clip-path="url(#clipPath3248)"><g
       id="g3252"
       transform="translate(125.4399,157.8887)"><path
         d="m 0,0 c 2.091,2.77 3.141,6.139 3.144,10.103 10e-4,3.961 -1.046,7.327 -3.137,10.103 -2.264,3.059 -5.348,4.585 -9.256,4.588 l -32.18,0.009 v 0.002 h -9.301 v -4.169 l 9.301,-10.138 v 4.117 l 31.583,-0.011 c 1.867,0 2.802,-1.501 2.802,-4.499 -0.002,-3.001 -0.937,-4.5 -2.804,-4.499 L -33.095,5.612 V 2.264 l 18.826,-21.108 13.925,-0.006 -12.819,14.27 3.905,-0.002 c 3.907,0 6.993,1.527 9.258,4.582"
         style="fill:#000000;fill-opacity:1;fill-rule:nonzero;stroke:none"
         id="path3254" /></g><g
       id="g3256"
       transform="translate(50.916,163.8442)"><path
         d="m 0,0 c -2.092,-2.771 -3.142,-6.139 -3.144,-10.104 -10e-4,-3.961 1.046,-7.326 3.137,-10.104 2.263,-3.058 5.348,-4.582 9.255,-4.585 l 32.181,-0.01 v -0.002 h 9.301 v 4.168 l -9.301,10.138 v -4.115 l -31.583,0.01 c -1.867,0 -2.801,1.5 -2.801,4.498 0.001,3.002 0.935,4.502 2.803,4.498 l 23.247,-0.004 v 3.348 L 14.27,18.843 0.344,18.85 13.163,4.581 9.257,4.582 C 5.352,4.582 2.265,3.055 0,0"
         style="fill:#000000;fill-opacity:1;fill-rule:nonzero;stroke:none"
         id="path3258" /></g></g></g><g
   aria-label="®"
   transform="scale(1,-1)"
   id="text3129"
   style="font-style:normal;font-variant:normal;font-weight:normal;font-stretch:normal;line-height:0%;font-family:sans-serif;-inkscape-font-specification:Sans;text-align:start;letter-spacing:0px;word-spacing:0px;writing-mode:lr-tb;text-anchor:start;fill:#000000;fill-opacity:1;stroke:none"><path
     d="m 444.44164,-173.088 q 0,2.51719 -1.78594,4.30313 -1.77891,1.7789 -4.29609,1.7789 -2.51719,0 -4.30313,-1.7789 -1.7789,-1.78594 -1.7789,-4.30313 0,-2.51718 1.7789,-4.29609 1.78594,-1.78594 4.30313,-1.78594 2.51718,0 4.29609,1.78594 1.78594,1.77891 1.78594,4.29609 z m -0.81563,0 q 0,-2.17968 -1.54687,-3.74062 -1.53985,-1.56094 -3.71953,-1.56094 -2.17969,0 -3.72657,1.56094 -1.53984,1.56094 -1.53984,3.74062 0,2.17969 1.53984,3.74063 1.54688,1.56094 3.72657,1.56094 2.17968,0 3.71953,-1.56094 1.54687,-1.56094 1.54687,-3.74063 z m -1.35,3.09375 h -1.56797 l -2.32734,-2.49609 h -1.13906 v 2.49609 h -1.16016 v -6.43359 h 2.19375 q 0.66094,0 1.08985,0.0563 0.4289,0.0563 0.84375,0.27422 0.44296,0.23906 0.64687,0.58359 0.21094,0.3375 0.21094,0.85078 0,0.68203 -0.40078,1.13907 -0.39375,0.45 -1.08985,0.71718 z m -2.475,-4.5914 q 0,-0.25313 -0.0984,-0.45 -0.0984,-0.19688 -0.33047,-0.32344 -0.21797,-0.11953 -0.46407,-0.15469 -0.24609,-0.0352 -0.61875,-0.0352 h -1.04765 v 2.17265 h 0.89297 q 0.43593,0 0.75234,-0.0633 0.31641,-0.0703 0.52031,-0.23203 0.21797,-0.17578 0.30235,-0.38672 0.0914,-0.21094 0.0914,-0.52734 z"
     style="font-style:normal;font-variant:normal;font-weight:normal;font-stretch:normal;font-size:14.4px;line-height:125%;font-family:sans-serif;-inkscape-font-specification:Sans;text-align:start;writing-mode:lr-tb;text-anchor:start"
     id="path873" /></g>
</g></svg>
